<mxfile host="Electron" modified="2024-06-26T11:13:30.102Z" agent="Mozilla/5.0 (Windows NT 10.0; Win64; x64) AppleWebKit/537.36 (KHTML, like Gecko) draw.io/24.4.13 Chrome/124.0.6367.207 Electron/30.0.6 Safari/537.36" etag="dVkbgb8iGyu6mcADEARp" version="24.4.13" type="device">
  <diagram name="Page-1" id="CrSCMatDkPofZ-JNnpZq">
    <mxGraphModel dx="1154" dy="803" grid="1" gridSize="10" guides="1" tooltips="1" connect="1" arrows="1" fold="1" page="1" pageScale="1" pageWidth="850" pageHeight="1100" math="0" shadow="0">
      <root>
        <mxCell id="0" />
        <mxCell id="1" parent="0" />
        <mxCell id="JVnEjBRN0mjEnymi3wtL-2" value="Ebene 2: Frontend" style="shape=umlFrame;whiteSpace=wrap;html=1;pointerEvents=0;width=140;height=20;" parent="1" vertex="1">
          <mxGeometry x="160" y="160" width="480" height="120" as="geometry" />
        </mxCell>
        <mxCell id="JVnEjBRN0mjEnymi3wtL-3" value="Ebene 2: Backend" style="shape=umlFrame;whiteSpace=wrap;html=1;pointerEvents=0;width=140;height=20;" parent="1" vertex="1">
          <mxGeometry x="280" y="360" width="360" height="280" as="geometry" />
        </mxCell>
        <mxCell id="JVnEjBRN0mjEnymi3wtL-6" value="&lt;div&gt;&amp;lt;&amp;lt;Rust&amp;gt;&amp;gt;&lt;/div&gt;Server" style="html=1;dropTarget=0;whiteSpace=wrap;" parent="1" vertex="1">
          <mxGeometry x="440" y="400" width="160" height="50" as="geometry" />
        </mxCell>
        <mxCell id="JVnEjBRN0mjEnymi3wtL-7" value="" style="shape=module;jettyWidth=8;jettyHeight=4;" parent="JVnEjBRN0mjEnymi3wtL-6" vertex="1">
          <mxGeometry x="1" width="20" height="20" relative="1" as="geometry">
            <mxPoint x="-27" y="7" as="offset" />
          </mxGeometry>
        </mxCell>
        <mxCell id="JVnEjBRN0mjEnymi3wtL-10" value="&lt;div&gt;&amp;lt;&amp;lt;Python&amp;gt;&amp;gt;&lt;/div&gt;KI Script" style="html=1;dropTarget=0;whiteSpace=wrap;" parent="1" vertex="1">
          <mxGeometry x="320" y="560" width="160" height="50" as="geometry" />
        </mxCell>
        <mxCell id="JVnEjBRN0mjEnymi3wtL-11" value="" style="shape=module;jettyWidth=8;jettyHeight=4;" parent="JVnEjBRN0mjEnymi3wtL-10" vertex="1">
          <mxGeometry x="1" width="20" height="20" relative="1" as="geometry">
            <mxPoint x="-27" y="7" as="offset" />
          </mxGeometry>
        </mxCell>
        <mxCell id="JVnEjBRN0mjEnymi3wtL-14" value="PostgreSQL Datenbank" style="strokeWidth=2;html=1;shape=mxgraph.flowchart.database;whiteSpace=wrap;verticalAlign=middle;" parent="1" vertex="1">
          <mxGeometry x="150" y="370" width="90" height="110" as="geometry" />
        </mxCell>
        <mxCell id="JVnEjBRN0mjEnymi3wtL-15" value="&lt;div&gt;&amp;lt;&amp;lt;JavaScript&amp;gt;&amp;gt;&lt;/div&gt;&lt;div&gt;Chatfenster&lt;/div&gt;" style="html=1;dropTarget=0;whiteSpace=wrap;" parent="1" vertex="1">
          <mxGeometry x="200" y="200" width="160" height="50" as="geometry" />
        </mxCell>
        <mxCell id="JVnEjBRN0mjEnymi3wtL-16" value="" style="shape=module;jettyWidth=8;jettyHeight=4;" parent="JVnEjBRN0mjEnymi3wtL-15" vertex="1">
          <mxGeometry x="1" width="20" height="20" relative="1" as="geometry">
            <mxPoint x="-27" y="7" as="offset" />
          </mxGeometry>
        </mxCell>
        <mxCell id="JVnEjBRN0mjEnymi3wtL-19" value="&lt;div&gt;Tampermonkey&lt;/div&gt;" style="html=1;dropTarget=0;whiteSpace=wrap;" parent="1" vertex="1">
          <mxGeometry x="480" y="200" width="140" height="50" as="geometry" />
        </mxCell>
        <mxCell id="JVnEjBRN0mjEnymi3wtL-20" value="" style="shape=module;jettyWidth=8;jettyHeight=4;" parent="JVnEjBRN0mjEnymi3wtL-19" vertex="1">
          <mxGeometry x="1" width="20" height="20" relative="1" as="geometry">
            <mxPoint x="-27" y="7" as="offset" />
          </mxGeometry>
        </mxCell>
        <mxCell id="JVnEjBRN0mjEnymi3wtL-22" value="&lt;p&gt;Prooph-Board App&lt;/p&gt;" style="verticalAlign=top;align=center;spacingTop=8;spacingLeft=2;spacingRight=12;shape=cube;size=10;direction=south;fontStyle=4;html=1;whiteSpace=wrap;" parent="1" vertex="1">
          <mxGeometry x="200" y="40" width="145" height="60" as="geometry" />
        </mxCell>
        <mxCell id="JVnEjBRN0mjEnymi3wtL-24" value="Benutzer" style="shape=umlActor;verticalLabelPosition=bottom;verticalAlign=top;html=1;outlineConnect=0;" parent="1" vertex="1">
          <mxGeometry x="40" y="185" width="40" height="80" as="geometry" />
        </mxCell>
        <mxCell id="JVnEjBRN0mjEnymi3wtL-25" value="" style="endArrow=classic;html=1;rounded=0;entryX=0;entryY=0.5;entryDx=0;entryDy=0;exitX=1;exitY=0.5;exitDx=0;exitDy=0;" parent="1" source="JVnEjBRN0mjEnymi3wtL-15" target="JVnEjBRN0mjEnymi3wtL-19" edge="1">
          <mxGeometry width="50" height="50" relative="1" as="geometry">
            <mxPoint x="370" y="230" as="sourcePoint" />
            <mxPoint x="450" y="230" as="targetPoint" />
          </mxGeometry>
        </mxCell>
        <mxCell id="JVnEjBRN0mjEnymi3wtL-26" value="l채dt 체ber" style="edgeLabel;html=1;align=center;verticalAlign=middle;resizable=0;points=[];" parent="JVnEjBRN0mjEnymi3wtL-25" vertex="1" connectable="0">
          <mxGeometry x="-0.15" y="1" relative="1" as="geometry">
            <mxPoint as="offset" />
          </mxGeometry>
        </mxCell>
        <mxCell id="JVnEjBRN0mjEnymi3wtL-27" value="" style="endArrow=classic;html=1;rounded=0;entryX=0;entryY=0;entryDx=25;entryDy=0;exitX=0.5;exitY=0;exitDx=0;exitDy=0;entryPerimeter=0;" parent="1" source="JVnEjBRN0mjEnymi3wtL-19" target="JVnEjBRN0mjEnymi3wtL-22" edge="1">
          <mxGeometry width="50" height="50" relative="1" as="geometry">
            <mxPoint x="425" y="120" as="sourcePoint" />
            <mxPoint x="545" y="120" as="targetPoint" />
            <Array as="points">
              <mxPoint x="550" y="65" />
            </Array>
          </mxGeometry>
        </mxCell>
        <mxCell id="JVnEjBRN0mjEnymi3wtL-28" value="l채dt Script auf" style="edgeLabel;html=1;align=center;verticalAlign=middle;resizable=0;points=[];" parent="JVnEjBRN0mjEnymi3wtL-27" vertex="1" connectable="0">
          <mxGeometry x="-0.15" y="1" relative="1" as="geometry">
            <mxPoint x="-50" as="offset" />
          </mxGeometry>
        </mxCell>
        <mxCell id="JVnEjBRN0mjEnymi3wtL-29" value="" style="endArrow=classic;html=1;rounded=0;dashed=1;exitX=0.5;exitY=0;exitDx=0;exitDy=0;exitPerimeter=0;entryX=0;entryY=0;entryDx=35;entryDy=145;entryPerimeter=0;" parent="1" source="JVnEjBRN0mjEnymi3wtL-24" target="JVnEjBRN0mjEnymi3wtL-22" edge="1">
          <mxGeometry width="50" height="50" relative="1" as="geometry">
            <mxPoint x="60" y="145" as="sourcePoint" />
            <mxPoint x="145" y="70" as="targetPoint" />
            <Array as="points">
              <mxPoint x="60" y="75" />
            </Array>
          </mxGeometry>
        </mxCell>
        <mxCell id="JVnEjBRN0mjEnymi3wtL-30" value="interagiert" style="edgeLabel;html=1;align=center;verticalAlign=middle;resizable=0;points=[];" parent="JVnEjBRN0mjEnymi3wtL-29" vertex="1" connectable="0">
          <mxGeometry x="-0.15" y="1" relative="1" as="geometry">
            <mxPoint x="31" y="-2" as="offset" />
          </mxGeometry>
        </mxCell>
        <mxCell id="JVnEjBRN0mjEnymi3wtL-31" value="" style="endArrow=classic;html=1;rounded=0;entryX=0;entryY=0.5;entryDx=0;entryDy=0;dashed=1;" parent="1" source="JVnEjBRN0mjEnymi3wtL-24" target="JVnEjBRN0mjEnymi3wtL-15" edge="1">
          <mxGeometry width="50" height="50" relative="1" as="geometry">
            <mxPoint x="100" y="210" as="sourcePoint" />
            <mxPoint x="180" y="210" as="targetPoint" />
          </mxGeometry>
        </mxCell>
        <mxCell id="JVnEjBRN0mjEnymi3wtL-32" value="interagiert" style="edgeLabel;html=1;align=center;verticalAlign=middle;resizable=0;points=[];" parent="JVnEjBRN0mjEnymi3wtL-31" vertex="1" connectable="0">
          <mxGeometry x="-0.15" y="1" relative="1" as="geometry">
            <mxPoint as="offset" />
          </mxGeometry>
        </mxCell>
        <mxCell id="JVnEjBRN0mjEnymi3wtL-33" value="" style="endArrow=classic;html=1;rounded=0;entryX=0.5;entryY=0;entryDx=0;entryDy=0;exitX=0.5;exitY=1;exitDx=0;exitDy=0;" parent="1" source="JVnEjBRN0mjEnymi3wtL-15" target="JVnEjBRN0mjEnymi3wtL-6" edge="1">
          <mxGeometry width="50" height="50" relative="1" as="geometry">
            <mxPoint x="305" y="310" as="sourcePoint" />
            <mxPoint x="425" y="310" as="targetPoint" />
            <Array as="points">
              <mxPoint x="280" y="320" />
              <mxPoint x="520" y="320" />
            </Array>
          </mxGeometry>
        </mxCell>
        <mxCell id="JVnEjBRN0mjEnymi3wtL-34" value="HTTPS" style="edgeLabel;html=1;align=center;verticalAlign=middle;resizable=0;points=[];" parent="JVnEjBRN0mjEnymi3wtL-33" vertex="1" connectable="0">
          <mxGeometry x="-0.15" y="1" relative="1" as="geometry">
            <mxPoint as="offset" />
          </mxGeometry>
        </mxCell>
        <mxCell id="JVnEjBRN0mjEnymi3wtL-35" value="" style="endArrow=classic;html=1;rounded=0;entryX=1;entryY=0.5;entryDx=0;entryDy=0;exitX=0.5;exitY=1;exitDx=0;exitDy=0;" parent="1" source="JVnEjBRN0mjEnymi3wtL-6" target="JVnEjBRN0mjEnymi3wtL-10" edge="1">
          <mxGeometry width="50" height="50" relative="1" as="geometry">
            <mxPoint x="425" y="499.71" as="sourcePoint" />
            <mxPoint x="545" y="499.71" as="targetPoint" />
            <Array as="points">
              <mxPoint x="520" y="585" />
            </Array>
          </mxGeometry>
        </mxCell>
        <mxCell id="JVnEjBRN0mjEnymi3wtL-36" value="f체hrt aus" style="edgeLabel;html=1;align=center;verticalAlign=middle;resizable=0;points=[];" parent="JVnEjBRN0mjEnymi3wtL-35" vertex="1" connectable="0">
          <mxGeometry x="-0.15" y="1" relative="1" as="geometry">
            <mxPoint as="offset" />
          </mxGeometry>
        </mxCell>
        <mxCell id="JVnEjBRN0mjEnymi3wtL-39" value="" style="endArrow=classic;html=1;rounded=0;entryX=0;entryY=0;entryDx=25;entryDy=0;exitX=0;exitY=0.5;exitDx=0;exitDy=0;entryPerimeter=0;" parent="1" source="JVnEjBRN0mjEnymi3wtL-10" target="FQS7HDbwOW3yuAg5aN1Q-1" edge="1">
          <mxGeometry width="50" height="50" relative="1" as="geometry">
            <mxPoint x="40" y="430" as="sourcePoint" />
            <mxPoint x="70" y="490" as="targetPoint" />
            <Array as="points" />
          </mxGeometry>
        </mxCell>
        <mxCell id="JVnEjBRN0mjEnymi3wtL-40" value="nutzt" style="edgeLabel;html=1;align=center;verticalAlign=middle;resizable=0;points=[];" parent="JVnEjBRN0mjEnymi3wtL-39" vertex="1" connectable="0">
          <mxGeometry x="-0.15" y="1" relative="1" as="geometry">
            <mxPoint as="offset" />
          </mxGeometry>
        </mxCell>
        <mxCell id="FQS7HDbwOW3yuAg5aN1Q-1" value="&lt;p&gt;Ollama&lt;/p&gt;" style="verticalAlign=top;align=center;spacingTop=8;spacingLeft=2;spacingRight=12;shape=cube;size=10;direction=south;fontStyle=4;html=1;whiteSpace=wrap;" parent="1" vertex="1">
          <mxGeometry x="20" y="560" width="100" height="60" as="geometry" />
        </mxCell>
        <mxCell id="FQS7HDbwOW3yuAg5aN1Q-2" value="llama3" style="shape=module;align=left;spacingLeft=20;align=center;verticalAlign=middle;whiteSpace=wrap;html=1;" parent="1" vertex="1">
          <mxGeometry x="30" y="370" width="90" height="50" as="geometry" />
        </mxCell>
        <mxCell id="FQS7HDbwOW3yuAg5aN1Q-5" value="" style="endArrow=classic;html=1;rounded=0;entryX=0.5;entryY=1;entryDx=0;entryDy=0;exitX=0;exitY=0;exitDx=0;exitDy=45;exitPerimeter=0;" parent="1" source="FQS7HDbwOW3yuAg5aN1Q-1" target="FQS7HDbwOW3yuAg5aN1Q-2" edge="1">
          <mxGeometry width="50" height="50" relative="1" as="geometry">
            <mxPoint x="30" y="350" as="sourcePoint" />
            <mxPoint x="150" y="350" as="targetPoint" />
          </mxGeometry>
        </mxCell>
        <mxCell id="FQS7HDbwOW3yuAg5aN1Q-6" value="verwendet" style="edgeLabel;html=1;align=center;verticalAlign=middle;resizable=0;points=[];" parent="FQS7HDbwOW3yuAg5aN1Q-5" vertex="1" connectable="0">
          <mxGeometry x="-0.15" y="1" relative="1" as="geometry">
            <mxPoint as="offset" />
          </mxGeometry>
        </mxCell>
        <mxCell id="9tWlJpZSqc4C_8TxyyK8-1" value="" style="endArrow=classic;html=1;rounded=0;entryX=1;entryY=0.5;entryDx=0;entryDy=0;exitX=0;exitY=0.5;exitDx=0;exitDy=0;entryPerimeter=0;" edge="1" parent="1" source="JVnEjBRN0mjEnymi3wtL-6" target="JVnEjBRN0mjEnymi3wtL-14">
          <mxGeometry width="50" height="50" relative="1" as="geometry">
            <mxPoint x="455" y="495" as="sourcePoint" />
            <mxPoint x="200" y="450" as="targetPoint" />
            <Array as="points" />
          </mxGeometry>
        </mxCell>
        <mxCell id="9tWlJpZSqc4C_8TxyyK8-2" value="nutzt" style="edgeLabel;html=1;align=center;verticalAlign=middle;resizable=0;points=[];" vertex="1" connectable="0" parent="9tWlJpZSqc4C_8TxyyK8-1">
          <mxGeometry x="-0.15" y="1" relative="1" as="geometry">
            <mxPoint as="offset" />
          </mxGeometry>
        </mxCell>
        <mxCell id="9tWlJpZSqc4C_8TxyyK8-5" value="" style="endArrow=classic;html=1;rounded=0;entryX=1;entryY=0.5;entryDx=0;entryDy=0;exitX=0.5;exitY=0;exitDx=0;exitDy=0;entryPerimeter=0;" edge="1" parent="1" source="JVnEjBRN0mjEnymi3wtL-10" target="JVnEjBRN0mjEnymi3wtL-14">
          <mxGeometry width="50" height="50" relative="1" as="geometry">
            <mxPoint x="450" y="435" as="sourcePoint" />
            <mxPoint x="250" y="435" as="targetPoint" />
            <Array as="points">
              <mxPoint x="400" y="425" />
            </Array>
          </mxGeometry>
        </mxCell>
        <mxCell id="9tWlJpZSqc4C_8TxyyK8-6" value="nutzt" style="edgeLabel;html=1;align=center;verticalAlign=middle;resizable=0;points=[];" vertex="1" connectable="0" parent="9tWlJpZSqc4C_8TxyyK8-5">
          <mxGeometry x="-0.15" y="1" relative="1" as="geometry">
            <mxPoint x="1" y="55" as="offset" />
          </mxGeometry>
        </mxCell>
      </root>
    </mxGraphModel>
  </diagram>
</mxfile>
